<svg height="512" viewBox="0 0 64 64" width="512" xmlns="http://www.w3.org/2000/svg"><g id="compass-stationery-school_materials-draw-drawing" data-name="compass-stationery-school materials-draw-drawing"><g fill="#bddbff"><path d="m49 23v2a2 2 0 0 1 -4 0v-2a2 2 0 0 1 4 0z"/><path d="m48.09 54.67-7.09-3.28-3.42-12.76-4.23-15.79a6 6 0 0 0 4.65-5.84l5.41 20.2z"/><path d="m34 5v6.35h-4v-6.35a2 2 0 0 1 4 0z"/><path d="m30.65 22.84-4.23 15.79-3.42 12.76-7.09 3.28 4.68-17.47 5.41-20.2a6 6 0 0 0 4.65 5.84z"/></g><path d="m44.6 37.79c2.66-1.16 4.4-2.77 4.4-4.79h-2c0 .96-1.08 1.97-2.92 2.82l-2.9-10.82h2.82a3 3 0 0 0 6 0v-2a3 3 0 0 0 -6 0h-3.36l-1.65-6.16a6.987 6.987 0 0 0 -3.99-6.15v-5.69a3 3 0 0 0 -6 0v5.69a6.987 6.987 0 0 0 -3.99 6.15l-5.09 18.98c-1.84-.85-2.92-1.86-2.92-2.82h-2c0 2.02 1.74 3.63 4.4 4.79l-6.53 24.35 1.93.52 1.95-7.28 6.67-3.08a1.044 1.044 0 0 0 .55-.65l3.19-11.93c1.26.14 2.55.23 3.84.26v2.02h2v-2.02c1.29-.03 2.58-.12 3.84-.26l3.19 11.93a1.044 1.044 0 0 0 .55.65l6.67 3.08 1.95 7.28 1.93-.52zm1.4-14.79a1 1 0 0 1 2 0v2a1 1 0 0 1 -2 0zm-15-18a1 1 0 0 1 2 0v5.08a6.29 6.29 0 0 0 -2 0zm1 7a5 5 0 1 1 -5 5 5 5 0 0 1 5-5zm-9.84 38.68-4.73 2.19 3.85-14.38a27.022 27.022 0 0 0 3.89.93zm3.53-13.19a25.531 25.531 0 0 1 -3.89-.94l4.25-15.88a7.04 7.04 0 0 0 3.39 2.84zm7.31.49v-1.98h-2v1.98c-1.15-.03-2.26-.1-3.31-.21l3.69-13.8c.21.02.41.03.62.03s.41-.01.62-.03l3.69 13.8c-1.05.11-2.16.18-3.31.21zm1.56-14.47a7.04 7.04 0 0 0 3.39-2.84l4.25 15.88a25.531 25.531 0 0 1 -3.89.94zm7.28 27.17-3.01-11.26a27.022 27.022 0 0 0 3.89-.93l3.85 14.38z" fill="#57a4ff"/></g></svg>