<svg height="512" viewBox="0 0 64 64" width="512" xmlns="http://www.w3.org/2000/svg"><g id="laptop-desk-files-calendar-table"><g fill="#bddbff"><path d="m61 31a2.015 2.015 0 0 1 -2 2h-54a2.006 2.006 0 0 1 -2-2 2.015 2.015 0 0 1 2-2h4a4 4 0 0 1 -4-4v-2h10v2h7v-2h9v2a4 4 0 0 1 -4 4h20v-4h12v4a2.006 2.006 0 0 1 2 2z"/><path d="m37 42h22v10h-22z"/><path d="m47 11h12v4h-12z"/></g><path d="m60 28.18v-17.18a1 1 0 0 0 -1-1h-12a1 1 0 0 0 -1 1v9h-2v-1h-2v1h-2v-1h-2v1h-3a1 1 0 0 0 -1 1v7h-3.03a4.924 4.924 0 0 0 1.03-3v-2a1 1 0 0 0 -1-1h-1v-15a3.009 3.009 0 0 0 -3-3h-18a3.009 3.009 0 0 0 -3 3v15h-1a1 1 0 0 0 -1 1v2a4.924 4.924 0 0 0 1.03 3h-.03a3 3 0 0 0 -1 5.82v27.18a1 1 0 0 0 1 1h4a1 1 0 0 0 1-1v-27h26v27a1 1 0 0 0 1 1h22a1 1 0 0 0 1-1v-27.18a2.988 2.988 0 0 0 0-5.64zm-6-16.18h4v2h-4zm0 4h4v8h-4zm0 10h4v2h-4zm-6-14h4v2h-4zm0 4h4v8h-4zm0 10h4v2h-4zm-12-4h2v1h2v-1h2v1h2v-1h2v6h-10zm-28-15a1 1 0 0 1 1-1h18a1 1 0 0 1 1 1v15h-6a1 1 0 0 0 -1 1v1h-5v-1a1 1 0 0 0 -1-1h-7zm-2 17h8v1a1 1 0 0 0 1 1h7a1 1 0 0 0 1-1v-1h7v1a3.009 3.009 0 0 1 -3 3h-18a3.009 3.009 0 0 1 -3-3zm2 36h-2v-26h2zm50 0h-20v-7h20zm0-9h-20v-8h20zm0-10h-20v-7h20zm1-9h-54a1 1 0 0 1 0-2h54a1 1 0 0 1 0 2z" fill="#57a4ff"/><path d="m24 12h2v-3a1 1 0 0 0 -1-1h-3v2h2z" fill="#57a4ff"/><path d="m24 14h2v2h-2z" fill="#57a4ff"/></g></svg>