<svg height="512" viewBox="0 0 64 64" width="512" xmlns="http://www.w3.org/2000/svg"><g id="notebook-pencil-ruler-writing-letter"><g fill="#bddbff"><path d="m47 16h4v4h-4z"/><path d="m49 61 2-7h-4z"/><path d="m43 43v4a4 4 0 0 1 -4 4h-2v4h-4v-4h-30v-48h6v44h24v-44h4v44h2a4 4 0 0 0 4-4z"/></g><path d="m39 2h-36a1 1 0 0 0 -1 1v52a1 1 0 0 0 1 1h23v5a1 1 0 0 0 1.55.83l2.45-1.63 2.45 1.63a1 1 0 0 0 1.55-.83v-5h5a5 5 0 0 0 5-5v-44a5 5 0 0 0 -5-5zm-35 2h4v42h-4zm22 50h-22v-2h22zm6 5.13-1.45-.96a.975.975 0 0 0 -1.1 0l-1.45.96v-7.13h4zm0-9.13h-28v-2h28zm0-4h-22v-42h22zm4 8h-2v-50h2zm6-3a3.009 3.009 0 0 1 -3 3h-1v-2h1a4.924 4.924 0 0 0 3-1.03zm0-4a3.009 3.009 0 0 1 -3 3h-1v-2h1a4.924 4.924 0 0 0 3-1.03zm0-4a3.009 3.009 0 0 1 -3 3h-1v-42h1a3.009 3.009 0 0 1 3 3z" fill="#57a4ff"/><path d="m49 8a3.009 3.009 0 0 0 -3 3v43a.8.8 0 0 0 .04.27l2 7a1 1 0 0 0 1.92 0l2-7a.8.8 0 0 0 .04-.27v-43a3.009 3.009 0 0 0 -3-3zm0 49.36-.67-2.36h1.34zm1-4.36h-2v-32h2zm0-34h-2v-2h2zm0-4h-2v-4a1 1 0 0 1 2 0z" fill="#57a4ff"/><path d="m61 2h-6a1 1 0 0 0 -1 1v58a1 1 0 0 0 1 1h6a1 1 0 0 0 1-1v-58a1 1 0 0 0 -1-1zm-1 8h-2v2h2v4h-2v2h2v4h-2v2h2v4h-2v2h2v4h-2v2h2v4h-2v2h2v4h-2v2h2v4h-2v2h2v6h-4v-56h4z" fill="#57a4ff"/></g></svg>