<svg height="512" viewBox="0 0 64 64" width="512" xmlns="http://www.w3.org/2000/svg"><g id="pastel-crayon-paint-tinged-colors"><g fill="#bddbff"><path d="m53 24v5h-42v-5h-8v33h58v-33zm0 25h-42v-12h42z"/><path d="m53 22h-6l2-7h2z"/><path d="m47 22h-6l2-7h2z"/><path d="m41 22h-6l2-7h2z"/><path d="m33 15h-2l-2 7h6z"/><path d="m27 15h-2l-2 7h6z"/><path d="m21 15h-2l-2 7h6z"/><path d="m15 15h-2l-2 7h6z"/></g><path d="m61.99 23.88-2-17a1 1 0 0 0 -.99-.88h-54a1 1 0 0 0 -.99.88l-2 17a.487.487 0 0 0 -.01.12v33a1 1 0 0 0 1 1h58a1 1 0 0 0 1-1v-33a.487.487 0 0 0 -.01-.12zm-56.1-15.88h52.22l1.77 15h-5.88v-1a.8.8 0 0 0 -.04-.27l-2-7a1 1 0 0 0 -.96-.73h-2a1 1 0 0 0 -.96.73l-1.04 3.63-1.04-3.63a1 1 0 0 0 -.96-.73h-2a1 1 0 0 0 -.96.73l-1.04 3.63-1.04-3.63a1 1 0 0 0 -.96-.73h-2a1 1 0 0 0 -.96.73l-1.04 3.63-1.04-3.63a1 1 0 0 0 -.96-.73h-2a1 1 0 0 0 -.96.73l-1.04 3.63-1.04-3.63a1 1 0 0 0 -.96-.73h-2a1 1 0 0 0 -.96.73l-1.04 3.63-1.04-3.63a1 1 0 0 0 -.96-.73h-2a1 1 0 0 0 -.96.73l-1.04 3.63-1.04-3.63a1 1 0 0 0 -.96-.73h-2a1 1 0 0 0 -.96.73l-2 7a.8.8 0 0 0 -.04.27v1h-5.88zm46.11 15v5h-4v-5zm-3.67-2 1.42-5h.5l1.42 5zm-2.33 2v5h-4v-5zm-3.67-2 1.42-5h.5l1.42 5zm-2.33 2v5h-4v-5zm-3.67-2 1.42-5h.5l1.42 5zm-2.33 2v5h-4v-5zm-3.67-2 1.42-5h.5l1.42 5zm-2.33 2v5h-4v-5zm-3.67-2 1.42-5h.5l1.42 5zm-2.33 2v5h-4v-5zm-3.67-2 1.42-5h.5l1.42 5zm-2.33 2v5h-4v-5zm-3.67-2 1.42-5h.5l1.42 5zm47.67 35h-56v-31h6v4a1 1 0 0 0 1 1h42a1 1 0 0 0 1-1v-4h6z" fill="#57a4ff"/><path d="m53 36h-42a1 1 0 0 0 -1 1v12a1 1 0 0 0 1 1h42a1 1 0 0 0 1-1v-12a1 1 0 0 0 -1-1zm-37 12h-4v-10h4zm6 0h-4v-10h4zm6 0h-4v-10h4zm6 0h-4v-10h4zm6 0h-4v-10h4zm6 0h-4v-10h4zm6 0h-4v-10h4z" fill="#57a4ff"/></g></svg>