<svg height="512" viewBox="0 0 64 64" width="512" xmlns="http://www.w3.org/2000/svg"><g id="printer-stationery-document-print-paper"><path d="m59 37h-54a2.006 2.006 0 0 0 -2 2v20a2.006 2.006 0 0 0 2 2h12v-6a2.006 2.006 0 0 1 2-2h26a2.006 2.006 0 0 1 2 2v6h12a2.006 2.006 0 0 0 2-2v-20a2.006 2.006 0 0 0 -2-2zm-50 8a2 2 0 1 1 2-2 2.006 2.006 0 0 1 -2 2zm8 0a2 2 0 1 1 2-2 2.006 2.006 0 0 1 -2 2zm40 0h-10v-4h10z" fill="#bddbff"/><path d="m46 17h4v14h-4z" fill="#bddbff"/><path d="m14 17h4v14h-4z" fill="#bddbff"/><g fill="#57a4ff"><path d="m59 36v-3a3.009 3.009 0 0 0 -3-3h-5v-13a1 1 0 0 0 -1-1h-1v-11a3.009 3.009 0 0 0 -3-3h-28a3.009 3.009 0 0 0 -3 3v11h-1a1 1 0 0 0 -1 1v13h-5a3.009 3.009 0 0 0 -3 3v3a3.009 3.009 0 0 0 -3 3v20a3.009 3.009 0 0 0 3 3h54a3.009 3.009 0 0 0 3-3v-20a3.009 3.009 0 0 0 -3-3zm-10-18v12h-2v-12zm-32-13a1 1 0 0 1 1-1h28a1 1 0 0 1 1 1v11h-1a1 1 0 0 0 -1 1v13h-26v-13a1 1 0 0 0 -1-1h-1zm-2 13h2v12h-2zm-8 15a1 1 0 0 1 1-1h48a1 1 0 0 1 1 1v3h-50zm39 27h-28v-5a1 1 0 0 1 1-1h26a1 1 0 0 1 1 1zm14-1a1 1 0 0 1 -1 1h-11v-5a3.009 3.009 0 0 0 -3-3h-26a3.009 3.009 0 0 0 -3 3v5h-11a1 1 0 0 1 -1-1v-20a1 1 0 0 1 1-1h54a1 1 0 0 1 1 1z"/><path d="m9 40a3 3 0 1 0 3 3 3 3 0 0 0 -3-3zm0 4a1 1 0 1 1 1-1 1 1 0 0 1 -1 1z"/><path d="m17 40a3 3 0 1 0 3 3 3 3 0 0 0 -3-3zm0 4a1 1 0 1 1 1-1 1 1 0 0 1 -1 1z"/><path d="m57 40h-10a1 1 0 0 0 -1 1v4a1 1 0 0 0 1 1h10a1 1 0 0 0 1-1v-4a1 1 0 0 0 -1-1zm-1 4h-8v-2h8z"/><path d="m23 40h18v2h-18z"/><path d="m23 44h18v2h-18z"/></g></g></svg>