<svg height="512" viewBox="0 0 64 64" width="512" xmlns="http://www.w3.org/2000/svg"><g id="projector-video_projector-wireless-smartphone-stationery" data-name="projector-video projector-wireless-smartphone-stationery"><path d="m47 57h8v4h-8z" fill="#bddbff"/><path d="m57 45a8 8 0 1 0 -8 8 8 8 0 0 0 8-8zm-12 0a4 4 0 1 1 4 4 4 4 0 0 1 -4-4z" fill="#bddbff"/><circle cx="49" cy="19" fill="#bddbff" r="2"/><path d="m7 45h16v4h-16z" fill="#bddbff"/><path d="m23 39v2h-16v-2a2.006 2.006 0 0 1 2-2h12a2.006 2.006 0 0 1 2 2z" fill="#bddbff"/><path d="m16 7h6l1-4h-8z" fill="#bddbff"/><path d="m9 57h8v4h-8z" fill="#bddbff"/><g fill="#57a4ff"><path d="m59 32h-54a3.009 3.009 0 0 0 -3 3v20a3.009 3.009 0 0 0 3 3h3v3a1 1 0 0 0 1 1h8a1 1 0 0 0 1-1v-3h28v3a1 1 0 0 0 1 1h8a1 1 0 0 0 1-1v-3h3a3.009 3.009 0 0 0 3-3v-20a3.009 3.009 0 0 0 -3-3zm-43 28h-6v-2h6zm38 0h-6v-2h6zm6-5a1 1 0 0 1 -1 1h-54a1 1 0 0 1 -1-1v-20a1 1 0 0 1 1-1h54a1 1 0 0 1 1 1z"/><path d="m49 36a9 9 0 1 0 9 9 9.01 9.01 0 0 0 -9-9zm0 16a7 7 0 1 1 7-7 7.008 7.008 0 0 1 -7 7z"/><path d="m49 40a5 5 0 1 0 5 5 5.006 5.006 0 0 0 -5-5zm0 8a3 3 0 1 1 3-3 3 3 0 0 1 -3 3z"/><path d="m21 36h-12a3 3 0 0 0 -3 3v12a3 3 0 0 0 3 3h12a3 3 0 0 0 3-3v-12a3 3 0 0 0 -3-3zm-12 2h12a1 1 0 0 1 1 1v1h-14v-1a1 1 0 0 1 1-1zm-1 6v-2h14v2zm14 2v2h-14v-2zm-1 6h-12a1 1 0 0 1 -1-1v-1h14v1a1 1 0 0 1 -1 1z"/><path d="m26 38h12v2h-12z"/><path d="m26 42h12v2h-12z"/><path d="m26 46h12v2h-12z"/><path d="m26 50h12v2h-12z"/><path d="m25 2h-12a3.009 3.009 0 0 0 -3 3v22a3.009 3.009 0 0 0 3 3h12a3.009 3.009 0 0 0 3-3v-22a3.009 3.009 0 0 0 -3-3zm-3.28 2-.5 2h-4.44l-.5-2zm4.28 23a1 1 0 0 1 -1 1h-12a1 1 0 0 1 -1-1v-22a1 1 0 0 1 1-1h1.22l.81 3.24a1 1 0 0 0 .97.76h6a1 1 0 0 0 .97-.76l.81-3.24h1.22a1 1 0 0 1 1 1z"/><path d="m49 6a12.952 12.952 0 0 1 9.194 3.809l1.411-1.418a15 15 0 0 0 -21.21 0l1.411 1.418a12.952 12.952 0 0 1 9.194-3.809z"/><path d="m56.777 11.223a10.994 10.994 0 0 0 -15.554 0l1.414 1.414a9 9 0 0 1 12.726 0z"/><path d="m53.951 14.056a6.989 6.989 0 0 0 -9.9 0l1.421 1.408a4.988 4.988 0 0 1 7.06 0z"/><path d="m46 19a3 3 0 1 0 3-3 3 3 0 0 0 -3 3zm4 0a1 1 0 1 1 -1-1 1 1 0 0 1 1 1z"/></g></g></svg>